<svg width="1920" height="1080" viewBox="0 0 1920 1080" fill="none" xmlns="http://www.w3.org/2000/svg">
<g opacity="0.4" filter="url(#filter0_f_43_44)">
<mask id="mask0_43_44" style="mask-type:luminance" maskUnits="userSpaceOnUse" x="568" y="443" width="1538" height="1456">
<path d="M568 443H2105.18V1899H568V443Z" fill="white"/>
</mask>
<g mask="url(#mask0_43_44)">
<mask id="mask1_43_44" style="mask-type:luminance" maskUnits="userSpaceOnUse" x="568" y="443" width="1537" height="1455">
<path d="M1950.06 443C1991.73 443 2031.29 457.045 2060.35 481.635C2085.22 502.71 2100.98 530.518 2104.13 560.083V561.244C2104.47 565.057 2104.82 568.855 2104.82 572.668C2104.82 608.369 2086.97 642.61 2055.81 667.2L1622.67 1024L1736.12 972.186C1789.67 946.435 1856.21 949.37 1905.94 980.096L1906.3 980.394C1935.36 998.236 1956.01 1024.29 1964.42 1053.57C1967.22 1063.52 1968.96 1074.05 1968.96 1084.29C1968.96 1115.02 1956.01 1145.18 1931.85 1168.6L1610.05 1499.03L1771.82 1452.79C1853.05 1429.67 1941.31 1465.97 1968.96 1533.57C1996.97 1601.19 1953.9 1675.25 1873.03 1698.66H1872.67L1202.82 1889.8C1190.92 1893.3 1178.66 1895.93 1166.4 1897.11C1160.81 1897.69 1155.21 1897.99 1149.24 1897.99H1148.55C1113.18 1897.99 1078.52 1887.74 1051.21 1869C1017.25 1845.89 996.239 1811.65 994.136 1775.05V1767.14C994.473 1740.23 1004.63 1714.16 1023.53 1692.51C1025.64 1689.87 1028.1 1687.53 1030.2 1685.2L1195.82 1514.85L800.845 1694.27C786.484 1701.3 770.733 1705.97 754.625 1708.91H754.268C702.792 1717.68 649.232 1704.22 612.454 1672.91C584.108 1648.9 568 1616.42 568 1582.46V1581.3C568 1545.58 585.853 1511.62 616.66 1487.33L1138.75 1058.24L841.114 1182.94C830.264 1187.91 818.361 1191.71 806.439 1194.05H806.102C793.843 1196.68 780.89 1198.14 768.273 1198.14H767.579C731.516 1198.14 696.503 1187.61 668.494 1168.3C633.125 1143.71 612.454 1107.13 612.454 1068.77V1068.19C612.454 1043.32 621.222 1019.03 637.33 998.236C641.178 992.98 645.721 988.287 650.621 983.611L1062.06 569.452C1116.69 514.417 1214.72 506.806 1280.56 552.472C1327.48 585.254 1347.43 637.934 1330.99 687.115L1876.52 458.222C1891.22 451.788 1906.99 447.096 1923.44 444.758H1924.15C1932.9 443.58 1941.31 443 1950.06 443Z" fill="white"/>
</mask>
<g mask="url(#mask1_43_44)">
<mask id="mask2_43_44" style="mask-type:luminance" maskUnits="userSpaceOnUse" x="567" y="443" width="1540" height="1456">
<path d="M2106.21 443H567.504V1899H2106.21V443Z" fill="white"/>
</mask>
<g mask="url(#mask2_43_44)">
<mask id="mask3_43_44" style="mask-type:luminance" maskUnits="userSpaceOnUse" x="567" y="443" width="1539" height="1455">
<path d="M568 443H2105.06V1897.72H568V443Z" fill="white"/>
</mask>
<g mask="url(#mask3_43_44)">
<mask id="mask4_43_44" style="mask-type:luminance" maskUnits="userSpaceOnUse" x="567" y="443" width="1538" height="1455">
<path d="M1950.06 443C1991.73 443 2031.29 457.045 2060.35 481.635C2085.22 502.711 2100.98 530.518 2104.13 560.083V561.244C2104.47 565.058 2104.82 568.855 2104.82 572.669C2104.82 608.369 2086.97 642.61 2055.81 667.2L1622.67 1024L1736.12 972.186C1789.67 946.435 1856.21 949.37 1905.94 980.096L1906.3 980.394C1935.36 998.236 1956.01 1024.29 1964.42 1053.57C1967.21 1063.52 1968.96 1074.05 1968.96 1084.29C1968.96 1115.02 1956.01 1145.18 1931.85 1168.6L1610.05 1499.03L1771.82 1452.79C1853.05 1429.67 1941.31 1465.97 1968.96 1533.57C1996.97 1601.19 1953.9 1675.25 1873.03 1698.66H1872.67L1202.82 1889.8C1190.92 1893.3 1178.66 1895.93 1166.4 1897.11C1160.81 1897.69 1155.21 1897.99 1149.24 1897.99H1148.55C1113.18 1897.99 1078.52 1887.74 1051.21 1869C1017.25 1845.89 996.239 1811.65 994.136 1775.05V1767.14C994.473 1740.23 1004.63 1714.16 1023.53 1692.51C1025.64 1689.87 1028.1 1687.53 1030.2 1685.2L1195.82 1514.85L800.845 1694.27C786.483 1701.3 770.733 1705.97 754.625 1708.91H754.268C702.792 1717.68 649.232 1704.22 612.454 1672.91C584.107 1648.9 568 1616.42 568 1582.46V1581.3C568 1545.58 585.853 1511.62 616.66 1487.33L1138.75 1058.25L841.114 1182.94C830.263 1187.91 818.361 1191.71 806.439 1194.05H806.102C793.843 1196.69 780.889 1198.14 768.273 1198.14H767.579C731.515 1198.14 696.503 1187.61 668.494 1168.3C633.124 1143.71 612.454 1107.13 612.454 1068.77V1068.19C612.454 1043.32 621.222 1019.03 637.33 998.236C641.178 992.98 645.721 988.287 650.621 983.611L1062.06 569.452C1116.69 514.417 1214.72 506.806 1280.56 552.472C1327.48 585.254 1347.43 637.934 1330.99 687.115L1876.52 458.222C1891.22 451.788 1906.99 447.096 1923.43 444.758H1924.15C1932.9 443.581 1941.31 443 1950.06 443Z" fill="white"/>
</mask>
<g mask="url(#mask4_43_44)">
<path d="M568 443H2105.18V1897.69H568V443Z" fill="#1ED36A"/>
</g>
</g>
</g>
<mask id="mask5_43_44" style="mask-type:luminance" maskUnits="userSpaceOnUse" x="567" y="443" width="1540" height="1456">
<path d="M2106.21 443H567.504V1899H2106.21V443Z" fill="white"/>
</mask>
<g mask="url(#mask5_43_44)">
<mask id="mask6_43_44" style="mask-type:luminance" maskUnits="userSpaceOnUse" x="567" y="443" width="1539" height="1455">
<path d="M568 443H2105.06V1897.69H568V443Z" fill="white"/>
</mask>
<g mask="url(#mask6_43_44)">
<mask id="mask7_43_44" style="mask-type:luminance" maskUnits="userSpaceOnUse" x="567" y="443" width="1538" height="1455">
<path d="M1950.06 443C1991.73 443 2031.29 457.045 2060.35 481.635C2085.22 502.711 2100.98 530.518 2104.13 560.083V561.244C2104.47 565.058 2104.82 568.855 2104.82 572.669C2104.82 608.369 2086.97 642.61 2055.81 667.2L1622.67 1024L1736.12 972.186C1789.67 946.435 1856.21 949.37 1905.94 980.096L1906.3 980.394C1935.36 998.236 1956.01 1024.29 1964.42 1053.57C1967.21 1063.52 1968.96 1074.05 1968.96 1084.29C1968.96 1115.02 1956.01 1145.18 1931.85 1168.6L1610.05 1499.03L1771.82 1452.79C1853.05 1429.67 1941.31 1465.97 1968.96 1533.57C1996.97 1601.19 1953.9 1675.25 1873.03 1698.66H1872.67L1202.82 1889.8C1190.92 1893.3 1178.66 1895.93 1166.4 1897.11C1160.81 1897.69 1155.21 1897.99 1149.24 1897.99H1148.55C1113.18 1897.99 1078.52 1887.74 1051.21 1869C1017.25 1845.89 996.239 1811.65 994.136 1775.05V1767.14C994.473 1740.23 1004.63 1714.16 1023.53 1692.51C1025.64 1689.87 1028.1 1687.53 1030.2 1685.2L1195.82 1514.85L800.845 1694.27C786.483 1701.3 770.733 1705.97 754.625 1708.91H754.268C702.792 1717.68 649.232 1704.22 612.454 1672.91C584.107 1648.9 568 1616.42 568 1582.46V1581.3C568 1545.58 585.853 1511.62 616.66 1487.33L1138.75 1058.25L841.114 1182.94C830.263 1187.91 818.361 1191.71 806.439 1194.05H806.102C793.843 1196.69 780.889 1198.14 768.273 1198.14H767.579C731.515 1198.14 696.503 1187.61 668.494 1168.3C633.124 1143.71 612.454 1107.13 612.454 1068.77V1068.19C612.454 1043.32 621.222 1019.03 637.33 998.236C641.178 992.98 645.721 988.287 650.621 983.611L1062.06 569.452C1116.69 514.417 1214.72 506.806 1280.56 552.472C1327.48 585.254 1347.43 637.934 1330.99 687.115L1876.52 458.222C1891.22 451.788 1906.99 447.096 1923.43 444.758H1924.15C1932.9 443.581 1941.31 443 1950.06 443Z" fill="white"/>
</mask>
<g mask="url(#mask7_43_44)">
<rect x="-896.918" y="443" width="4467.99" height="1454.69" fill="#1ED36A"/>
</g>
</g>
</g>
</g>
</g>
</g>
<defs>
<filter id="filter0_f_43_44" x="-32" y="-157" width="2736.82" height="2654.69" filterUnits="userSpaceOnUse" color-interpolation-filters="sRGB">
<feFlood flood-opacity="0" result="BackgroundImageFix"/>
<feBlend mode="normal" in="SourceGraphic" in2="BackgroundImageFix" result="shape"/>
<feGaussianBlur stdDeviation="300" result="effect1_foregroundBlur_43_44"/>
</filter>
</defs>
</svg>
